<svg width="1024" height="1024" viewBox="0 0 1024 1024" fill="none" xmlns="http://www.w3.org/2000/svg">
<path d="M970.62 0C995.148 0 1011.1 25.8091 1000.14 47.7504L977.533 92.9934L930.922 186.166L884.311 279.338L791.273 465.245C791.247 465.297 791.233 465.355 791.233 465.414V465.414C791.233 465.473 791.22 465.531 791.193 465.583L774.241 499.51C762.091 523.826 727.4 523.848 715.219 499.547L698.196 465.583C698.169 465.531 698.156 465.473 698.156 465.414V465.414C698.156 465.355 698.142 465.297 698.116 465.245L659.059 387.082C654.419 377.795 654.419 366.867 659.059 357.581L674.908 325.863C684.491 306.684 711.854 306.667 721.461 325.834V325.834C731.068 345.002 758.431 344.985 768.015 325.806L791.233 279.338L837.667 186.23C837.687 186.191 837.728 186.166 837.772 186.166V186.166C837.817 186.166 837.857 186.14 837.877 186.101L863.564 134.594C873.101 115.471 859.194 92.9934 837.825 92.9934V92.9934C816.43 92.9934 802.524 70.4678 812.111 51.3415L828.716 18.2129C834.311 7.04899 845.729 0 858.217 0H970.62Z" fill="#20C1C1"/>
<path d="M426.303 636.907C421.657 646.2 421.658 657.137 426.306 666.429L465.533 744.841L511.985 837.804C511.995 837.824 512 837.846 512 837.869V837.967C512 837.992 512.021 838.013 512.047 838.013V838.013C512.086 838.013 512.108 837.968 512.083 837.937L512.034 837.876C512.013 837.851 512.009 837.815 512.024 837.786L558.611 744.841L597.733 666.397C602.358 657.123 602.358 646.215 597.733 636.941L565.963 573.239C561.334 563.957 561.338 553.039 565.974 543.76L575.567 524.564C587.723 500.234 622.44 500.23 634.603 524.557L690.786 636.93C695.426 646.21 695.431 657.131 690.801 666.415L651.689 744.841L605.118 837.754C605.091 837.807 605.078 837.865 605.078 837.924V837.924C605.078 837.983 605.064 838.041 605.038 838.093L558.611 931.007L541.547 965.05C529.367 989.351 494.676 989.33 482.526 965.014L465.533 931.007L419.119 838.116C419.084 838.048 419.043 837.983 418.994 837.924V837.924C418.946 837.864 418.905 837.8 418.871 837.732L372.311 744.841L333.199 666.415C328.568 657.131 328.574 646.21 333.214 636.93L418.882 465.583C418.909 465.531 418.922 465.473 418.922 465.414V465.414C418.922 465.355 418.936 465.297 418.962 465.244L512 279.338L558.434 186.23C558.454 186.191 558.494 186.166 558.539 186.166V186.166C558.583 186.166 558.624 186.14 558.643 186.101L605.078 92.9934L642.56 18.2129C648.156 7.04899 659.574 0 672.062 0H691.313C715.858 0 731.813 25.8435 720.814 47.7871L698.155 92.9934L651.721 186.101C651.701 186.14 651.661 186.166 651.617 186.166V186.166C651.572 186.166 651.532 186.191 651.512 186.23L605.078 279.338L512.04 465.244C512.014 465.297 512 465.355 512 465.414V465.414C512 465.473 511.986 465.531 511.96 465.583L426.303 636.907Z" fill="#BD1292"/>
<path d="M505.157 0C529.703 0 545.658 25.8435 534.659 47.7871L512 92.9934L465.566 186.101C465.546 186.14 465.505 186.166 465.461 186.166V186.166C465.417 186.166 465.376 186.191 465.356 186.23L418.922 279.338L325.884 465.245C325.858 465.297 325.844 465.355 325.844 465.414V465.414C325.844 465.473 325.831 465.531 325.804 465.583L308.781 499.547C296.6 523.848 261.909 523.826 249.759 499.51L232.807 465.583C232.78 465.531 232.767 465.473 232.767 465.414V465.414C232.767 465.355 232.753 465.297 232.727 465.245L139.689 279.338L117.025 233.893C106.083 211.954 122.04 186.166 146.556 186.166H225.899C250.416 186.166 266.372 211.954 255.431 233.893L240.119 264.596C235.49 273.878 235.494 284.796 240.13 294.074L249.759 313.345C261.909 337.661 296.6 337.682 308.781 313.381L325.844 279.338L372.246 186.295C372.286 186.216 372.367 186.166 372.456 186.166V186.166V186.166C372.389 186.166 372.346 186.096 372.376 186.036L395.617 139.579C406.323 118.179 390.761 92.9934 366.832 92.9934H66.9839C54.4962 92.9934 43.0781 85.9444 37.4824 74.7805L23.9524 47.7871C12.9536 25.8435 28.9082 0 53.454 0H505.157Z" fill="url(#paint0_linear_391_18)"/>
<defs>
<linearGradient id="paint0_linear_391_18" x1="279.306" y1="0" x2="279.306" y2="558.497" gradientUnits="userSpaceOnUse">
<stop offset="0.0528846" stop-color="#E31676"/>
<stop offset="0.721154" stop-color="#110208"/>
</linearGradient>
</defs>
</svg>
